<svg width="15" height="15" viewBox="0 0 15 15" fill="none" xmlns="http://www.w3.org/2000/svg">
<g id="bxs:down-arrow">
<path id="Vector" d="M6.98613 12.2306C7.04347 12.3139 7.12019 12.382 7.20969 12.429C7.29919 12.4761 7.39878 12.5006 7.49988 12.5006C7.60099 12.5006 7.70058 12.4761 7.79008 12.429C7.87958 12.382 7.9563 12.3139 8.01363 12.2306L13.6386 4.10563C13.7037 4.01191 13.7419 3.90214 13.749 3.78825C13.7561 3.67436 13.7319 3.5607 13.6789 3.45962C13.626 3.35854 13.5463 3.27391 13.4487 3.21491C13.351 3.15592 13.239 3.12482 13.1249 3.125H1.87488C1.76104 3.12547 1.64947 3.15697 1.55218 3.2161C1.4549 3.27524 1.37557 3.35977 1.32274 3.46062C1.26991 3.56147 1.24556 3.67481 1.25233 3.78846C1.25909 3.90211 1.29671 4.01176 1.36113 4.10563L6.98613 12.2306Z" fill="#EFF0F4"/>
</g>
</svg>
