<svg width="25" height="25" viewBox="0 0 25 25" fill="none" xmlns="http://www.w3.org/2000/svg">
<g id="mingcute:delete-2-line" clip-path="url(#clip0_289_1680)">
<g id="Group">
<path id="Vector" d="M14.875 2.0835C15.3122 2.08361 15.7384 2.22129 16.093 2.47705C16.4477 2.7328 16.7129 3.09365 16.851 3.5085L17.4167 5.2085H20.8333C21.1096 5.2085 21.3746 5.31824 21.5699 5.51359C21.7653 5.70894 21.875 5.9739 21.875 6.25016C21.875 6.52643 21.7653 6.79138 21.5699 6.98673C21.3746 7.18208 21.1096 7.29183 20.8333 7.29183L20.8302 7.36579L19.9271 20.0147C19.8707 20.8029 19.5179 21.5404 18.9396 22.0789C18.3613 22.6173 17.6006 22.9167 16.8104 22.9168H8.18958C7.39943 22.9167 6.63865 22.6173 6.06038 22.0789C5.48211 21.5404 5.12928 20.8029 5.07292 20.0147L4.16979 7.36475C4.16791 7.34048 4.16686 7.31616 4.16667 7.29183C3.8904 7.29183 3.62545 7.18208 3.4301 6.98673C3.23475 6.79138 3.125 6.52643 3.125 6.25016C3.125 5.9739 3.23475 5.70894 3.4301 5.51359C3.62545 5.31824 3.8904 5.2085 4.16667 5.2085H7.58333L8.14896 3.5085C8.28718 3.09348 8.55254 2.73251 8.90739 2.47674C9.26225 2.22097 9.68861 2.08339 10.126 2.0835H14.875ZM18.7469 7.29183H6.25312L7.15104 19.8658C7.16974 20.1285 7.28727 20.3744 7.47996 20.5539C7.67265 20.7335 7.9262 20.8334 8.18958 20.8335H16.8104C17.0738 20.8334 17.3273 20.7335 17.52 20.5539C17.7127 20.3744 17.8303 20.1285 17.849 19.8658L18.7469 7.29183ZM10.4167 10.4168C10.6718 10.4169 10.9181 10.5105 11.1087 10.6801C11.2994 10.8496 11.4212 11.0832 11.451 11.3366L11.4583 11.4585V16.6668C11.458 16.9323 11.3564 17.1877 11.1741 17.3808C10.9919 17.5738 10.7428 17.69 10.4777 17.7056C10.2127 17.7211 9.95169 17.6349 9.74809 17.4645C9.54449 17.2941 9.41365 17.0523 9.38229 16.7887L9.375 16.6668V11.4585C9.375 11.1822 9.48475 10.9173 9.6801 10.7219C9.87545 10.5266 10.1404 10.4168 10.4167 10.4168ZM14.5833 10.4168C14.8596 10.4168 15.1246 10.5266 15.3199 10.7219C15.5153 10.9173 15.625 11.1822 15.625 11.4585V16.6668C15.625 16.9431 15.5153 17.2081 15.3199 17.4034C15.1246 17.5988 14.8596 17.7085 14.5833 17.7085C14.3071 17.7085 14.0421 17.5988 13.8468 17.4034C13.6514 17.2081 13.5417 16.9431 13.5417 16.6668V11.4585C13.5417 11.1822 13.6514 10.9173 13.8468 10.7219C14.0421 10.5266 14.3071 10.4168 14.5833 10.4168ZM14.875 4.16683H10.125L9.77812 5.2085H15.2219L14.875 4.16683Z" fill="white"/>
</g>
</g>
<defs>
<clipPath id="clip0_289_1680">
<rect width="25" height="25" fill="white"/>
</clipPath>
</defs>
</svg>
