<svg width="15" height="15" viewBox="0 0 15 15" fill="none" xmlns="http://www.w3.org/2000/svg">
<g id="fluent:edit-12-filled">
<path id="Vector" d="M9.67001 1.95013C10.1189 1.50141 10.7276 1.24939 11.3623 1.24951C11.997 1.24963 12.6057 1.50187 13.0544 1.95075C13.5031 2.39963 13.7551 3.00837 13.755 3.64307C13.7549 4.27776 13.5026 4.88641 13.0538 5.33513L12.7613 5.62763L9.37751 2.24388L9.67001 1.95138V1.95013ZM8.49376 3.12763L2.06251 9.55763C1.9757 9.64483 1.91656 9.75571 1.89251 9.87638L1.26251 13.0014C1.24195 13.1024 1.2467 13.2069 1.27632 13.3056C1.30593 13.4043 1.35951 13.4942 1.43226 13.5672C1.50502 13.6402 1.5947 13.6941 1.69332 13.724C1.79194 13.754 1.89644 13.7591 1.99751 13.7389L5.12751 13.1139C5.24832 13.0895 5.35922 13.0299 5.44626 12.9426L11.8775 6.51138L8.49376 3.12763Z" fill="#EFF0F4"/>
</g>
</svg>
