<svg width="15" height="15" viewBox="0 0 15 15" fill="none" xmlns="http://www.w3.org/2000/svg">
<path id="Favorite filled" d="M4.94019 4.52851L0.584663 5.18943L0.50752 5.20586C0.390739 5.23831 0.284279 5.30262 0.19901 5.39221C0.113741 5.4818 0.0527181 5.59348 0.0221739 5.71583C-0.00837034 5.83818 -0.00734191 5.96682 0.0251541 6.08862C0.0576501 6.21041 0.120449 6.321 0.207139 6.40909L3.36251 9.62365L2.61838 14.1643L2.60951 14.2429C2.60236 14.3693 2.62744 14.4955 2.68218 14.6084C2.73692 14.7213 2.81935 14.817 2.92104 14.8856C3.02273 14.9543 3.14001 14.9934 3.26089 14.999C3.38176 15.0045 3.50189 14.9764 3.60896 14.9174L7.50435 12.7739L11.3909 14.9174L11.4591 14.9503C11.5718 14.9967 11.6943 15.011 11.814 14.9916C11.9337 14.9721 12.0462 14.9197 12.1402 14.8397C12.2341 14.7597 12.3061 14.655 12.3486 14.5363C12.3911 14.4176 12.4027 14.2893 12.3821 14.1643L11.6373 9.62365L14.7941 6.40838L14.8473 6.34764C14.9234 6.24959 14.9732 6.13219 14.9918 6.00739C15.0104 5.8826 14.9971 5.75487 14.9532 5.63723C14.9093 5.51959 14.8363 5.41624 14.7418 5.3377C14.6473 5.25916 14.5346 5.20825 14.4152 5.19015L10.0596 4.52851L8.11262 0.398672C8.05629 0.279017 7.96907 0.178258 7.86084 0.1078C7.75262 0.0373425 7.62771 0 7.50026 0C7.3728 0 7.24789 0.0373425 7.13967 0.1078C7.03145 0.178258 6.94423 0.279017 6.88789 0.398672L4.94019 4.52851Z" fill="#EFF0F4"/>
</svg>
