<svg width="31" height="31" viewBox="0 0 31 31" fill="none" xmlns="http://www.w3.org/2000/svg">
<path id="favorites" d="M30.4497 11.8425C30.3551 11.5557 30.183 11.3038 29.9544 11.1173C29.7257 10.9309 29.4502 10.8179 29.1614 10.792L20.638 9.49063L16.8182 1.38448C16.6956 1.11939 16.5041 0.895825 16.2656 0.739396C16.0272 0.582966 15.7515 0.5 15.4701 0.5C15.1887 0.5 14.913 0.582966 14.6745 0.739396C14.4361 0.895825 14.2446 1.11939 14.1219 1.38448L10.3021 9.47495L1.7787 10.792C1.50147 10.8332 1.24082 10.955 1.02635 11.1435C0.811885 11.3319 0.652177 11.5795 0.565356 11.8582C0.485881 12.1305 0.478749 12.4203 0.544725 12.6965C0.610701 12.9728 0.747295 13.225 0.939846 13.4261L7.12643 19.6978L5.62846 28.6036C5.56799 28.899 5.59035 29.2064 5.69285 29.4889C5.79536 29.7713 5.97365 30.0167 6.20627 30.1956C6.43889 30.3745 6.71594 30.4793 7.00409 30.4972C7.29223 30.5152 7.5792 30.4456 7.83047 30.2969L15.4701 26.1106L23.1097 30.2969C23.3199 30.4211 23.5574 30.4859 23.7987 30.4851C24.116 30.4863 24.4255 30.382 24.6825 30.1872C24.9149 30.0129 25.0948 29.7727 25.201 29.4949C25.3072 29.217 25.3352 28.9132 25.2817 28.6193L23.7838 19.7135L29.9703 13.4418C30.1866 13.25 30.3465 12.9979 30.4313 12.7148C30.5162 12.4317 30.5225 12.1292 30.4497 11.8425ZM21.2372 18.1142C21.0638 18.2904 20.9338 18.508 20.8581 18.7482C20.7825 18.9885 20.7635 19.2444 20.8028 19.494L21.8813 26.0792L16.249 22.9434C16.0301 22.83 15.7892 22.7711 15.545 22.7711C15.3008 22.7711 15.0598 22.83 14.8409 22.9434L9.20859 26.0792L10.2871 19.494C10.3264 19.2444 10.3074 18.9885 10.2318 18.7482C10.1562 18.508 10.0261 18.2904 9.85272 18.1142L5.35883 13.4104L11.6652 12.454C11.9079 12.4187 12.1386 12.3216 12.3371 12.1712C12.5356 12.0209 12.6958 11.8219 12.8037 11.5916L15.4701 5.61786L18.2862 11.6073C18.3942 11.8376 18.5544 12.0366 18.7529 12.1869C18.9513 12.3373 19.182 12.4343 19.4247 12.4697L25.7311 13.4261L21.2372 18.1142Z" fill="white" fill-opacity="0.5"/>
</svg>
