<svg width="31" height="31" viewBox="0 0 31 31" fill="none" xmlns="http://www.w3.org/2000/svg">
<g id="octicon:home-16">
<path id="Vector" d="M13.4488 1.74488C14.0305 1.27884 14.7537 1.0249 15.4991 1.0249C16.2445 1.0249 16.9676 1.27884 17.5494 1.74488L27.3931 9.61988C28.1713 10.2424 28.625 11.1855 28.625 12.183V25.3436C28.625 26.2139 28.2793 27.0485 27.6639 27.6638C27.0486 28.2792 26.214 28.6249 25.3438 28.6249H18.7812C18.4083 28.6249 18.0506 28.4767 17.7869 28.213C17.5232 27.9493 17.375 27.5916 17.375 27.2186V17.3749H13.625V27.2186C13.625 27.5916 13.4768 27.9493 13.2131 28.213C12.9494 28.4767 12.5917 28.6249 12.2188 28.6249H5.65625C4.78601 28.6249 3.95141 28.2792 3.33606 27.6638C2.7207 27.0485 2.375 26.2139 2.375 25.3436V12.1811C2.375 11.1855 2.82875 10.2424 3.60687 9.61988L13.4488 1.74488ZM15.7925 3.9405C15.7094 3.87418 15.6063 3.83805 15.5 3.83805C15.3937 3.83805 15.2906 3.87418 15.2075 3.9405L5.36375 11.8155C5.3086 11.8595 5.26411 11.9155 5.23359 11.9791C5.20307 12.0427 5.18732 12.1124 5.1875 12.183V25.3436C5.1875 25.6024 5.3975 25.8124 5.65625 25.8124H10.8125V15.9686C10.8125 15.5957 10.9607 15.238 11.2244 14.9743C11.4881 14.7105 11.8458 14.5624 12.2188 14.5624H18.7812C19.1542 14.5624 19.5119 14.7105 19.7756 14.9743C20.0393 15.238 20.1875 15.5957 20.1875 15.9686V25.8124H25.3438C25.4681 25.8124 25.5873 25.763 25.6752 25.6751C25.7631 25.5872 25.8125 25.4679 25.8125 25.3436V12.1811C25.8124 12.1109 25.7965 12.0415 25.766 11.9783C25.7355 11.915 25.6912 11.8593 25.6362 11.8155L15.7925 3.9405Z" fill="#EFF0F4" fill-opacity="0.5"/>
</g>
</svg>
