<svg width="36" height="35" viewBox="0 0 36 35" fill="none" xmlns="http://www.w3.org/2000/svg">
<g id="ph:list-bold">
<path id="Vector" d="M31.6719 17.5C31.6719 17.9351 31.499 18.3524 31.1913 18.6601C30.8837 18.9678 30.4664 19.1406 30.0312 19.1406H5.96875C5.53363 19.1406 5.11633 18.9678 4.80865 18.6601C4.50098 18.3524 4.32812 17.9351 4.32812 17.5C4.32812 17.0649 4.50098 16.6476 4.80865 16.3399C5.11633 16.0322 5.53363 15.8594 5.96875 15.8594H30.0312C30.4664 15.8594 30.8837 16.0322 31.1913 16.3399C31.499 16.6476 31.6719 17.0649 31.6719 17.5ZM5.96875 10.3906H30.0312C30.4664 10.3906 30.8837 10.2178 31.1913 9.9101C31.499 9.60242 31.6719 9.18512 31.6719 8.75C31.6719 8.31488 31.499 7.89758 31.1913 7.5899C30.8837 7.28223 30.4664 7.10938 30.0312 7.10938H5.96875C5.53363 7.10938 5.11633 7.28223 4.80865 7.5899C4.50098 7.89758 4.32812 8.31488 4.32812 8.75C4.32812 9.18512 4.50098 9.60242 4.80865 9.9101C5.11633 10.2178 5.53363 10.3906 5.96875 10.3906ZM30.0312 24.6094H5.96875C5.53363 24.6094 5.11633 24.7822 4.80865 25.0899C4.50098 25.3976 4.32812 25.8149 4.32812 26.25C4.32812 26.6851 4.50098 27.1024 4.80865 27.4101C5.11633 27.7178 5.53363 27.8906 5.96875 27.8906H30.0312C30.4664 27.8906 30.8837 27.7178 31.1913 27.4101C31.499 27.1024 31.6719 26.6851 31.6719 26.25C31.6719 25.8149 31.499 25.3976 31.1913 25.0899C30.8837 24.7822 30.4664 24.6094 30.0312 24.6094Z" fill="#EFF0F4"/>
</g>
</svg>
