<svg width="206" height="207" viewBox="0 0 206 207" fill="none" xmlns="http://www.w3.org/2000/svg">
<g id="icon-park-outline:picture">
<g id="Group">
<path id="Vector" d="M167.167 26.5H38.8333C35.4297 26.5 32.1655 27.8521 29.7588 30.2588C27.3521 32.6655 26 35.9297 26 39.3333V167.667C26 171.07 27.3521 174.334 29.7588 176.741C32.1655 179.148 35.4297 180.5 38.8333 180.5H167.167C170.57 180.5 173.834 179.148 176.241 176.741C178.648 174.334 180 171.07 180 167.667V39.3333C180 35.9297 178.648 32.6655 176.241 30.2588C173.834 27.8521 170.57 26.5 167.167 26.5Z" stroke="#EFF0F4" stroke-width="4" stroke-linecap="round" stroke-linejoin="round"/>
<path id="Vector_2" d="M77.3333 99.2221C83.006 99.2221 88.4464 96.9686 92.4576 92.9575C96.4688 88.9463 98.7222 83.5059 98.7222 77.8332C98.7222 72.1605 96.4688 66.7202 92.4576 62.709C88.4464 58.6978 83.006 56.4443 77.3333 56.4443C71.6607 56.4443 66.2203 58.6978 62.2091 62.709C58.1979 66.7202 55.9445 72.1605 55.9445 77.8332C55.9445 83.5059 58.1979 88.9463 62.2091 92.9575C66.2203 96.9686 71.6607 99.2221 77.3333 99.2221ZM119.213 112.997C120.023 111.911 121.08 111.034 122.296 110.437C123.512 109.84 124.853 109.54 126.207 109.562C127.562 109.584 128.892 109.928 130.087 110.564C131.283 111.201 132.311 112.112 133.086 113.223L170.623 167.051C174.576 172.723 170.516 180.5 163.608 180.5H68.7778L119.213 112.997Z" stroke="#EFF0F4" stroke-width="4" stroke-linecap="round" stroke-linejoin="round"/>
</g>
</g>
</svg>
