<svg width="33" height="33" viewBox="0 0 33 33" fill="none" xmlns="http://www.w3.org/2000/svg">
<g id="search">
<path id="Vector" d="M29.5 27.25L21.745 19.4937C22.9948 17.7763 23.667 15.7065 23.665 13.5825C23.665 8.02313 19.1419 3.5 13.5825 3.5C8.02313 3.5 3.5 8.02313 3.5 13.5825C3.5 19.1419 8.02313 23.665 13.5825 23.665C15.7065 23.667 17.7763 22.9948 19.4937 21.745L27.25 29.5L29.5 27.25ZM13.5825 20.4806C12.218 20.4807 10.8841 20.0762 9.74953 19.3182C8.61494 18.5602 7.73061 17.4828 7.20838 16.2222C6.68615 14.9616 6.54948 13.5744 6.81565 12.2361C7.08182 10.8979 7.73888 9.66857 8.70372 8.70372C9.66857 7.73888 10.8979 7.08182 12.2361 6.81565C13.5744 6.54948 14.9616 6.68615 16.2222 7.20838C17.4828 7.73061 18.5602 8.61494 19.3182 9.74953C20.0762 10.8841 20.4807 12.218 20.4806 13.5825C20.4785 15.4113 19.751 17.1647 18.4578 18.4578C17.1647 19.751 15.4113 20.4785 13.5825 20.4806Z" fill="#EFF0F4"/>
</g>
</svg>
