<svg width="31" height="31" viewBox="0 0 31 31" fill="none" xmlns="http://www.w3.org/2000/svg">
<g id="ph:user-bold">
<path id="Vector" d="M27.6449 25.7691C26.0382 22.9493 23.5294 20.7521 20.5223 19.5312C22.0177 18.4097 23.1223 16.846 23.6796 15.0618C24.237 13.2776 24.2188 11.3632 23.6277 9.58985C23.0366 7.8165 21.9025 6.2741 20.3861 5.18112C18.8697 4.08815 17.0478 3.5 15.1785 3.5C13.3092 3.5 11.4874 4.08815 9.97093 5.18112C8.4545 6.2741 7.32041 7.8165 6.72929 9.58985C6.13818 11.3632 6.12001 13.2776 6.67737 15.0618C7.23472 16.846 8.33934 18.4097 9.83475 19.5312C6.82763 20.7521 4.31879 22.9493 2.7121 25.7691C2.61254 25.9292 2.54619 26.1077 2.51698 26.2939C2.48777 26.4802 2.49631 26.6704 2.54208 26.8532C2.58786 27.0361 2.66993 27.2079 2.78343 27.3584C2.89692 27.509 3.03952 27.6351 3.20275 27.7294C3.36598 27.8237 3.54651 27.8843 3.7336 27.9074C3.92068 27.9305 4.11052 27.9158 4.29181 27.8642C4.4731 27.8125 4.64214 27.7249 4.7889 27.6065C4.93566 27.4882 5.05712 27.3416 5.14608 27.1754C7.26952 23.5051 11.0195 21.316 15.1785 21.316C19.3375 21.316 23.0875 23.5062 25.2109 27.1754C25.4037 27.4854 25.7095 27.7083 26.0636 27.7969C26.4178 27.8855 26.7925 27.833 27.1086 27.6504C27.4247 27.4677 27.6574 27.1694 27.7574 26.8183C27.8575 26.4672 27.8172 26.091 27.6449 25.7691ZM9.08475 12.4098C9.08475 11.2045 9.44215 10.0264 10.1117 9.02426C10.7813 8.02215 11.733 7.2411 12.8465 6.77987C13.96 6.31865 15.1853 6.19798 16.3673 6.43311C17.5494 6.66823 18.6352 7.24861 19.4874 8.10083C20.3397 8.95306 20.92 10.0389 21.1552 11.2209C21.3903 12.403 21.2696 13.6283 20.8084 14.7417C20.3472 15.8552 19.5661 16.8069 18.564 17.4765C17.5619 18.1461 16.3837 18.5035 15.1785 18.5035C13.5629 18.5017 12.014 17.859 10.8716 16.7166C9.72923 15.5742 9.08661 14.0254 9.08475 12.4098Z" fill="#EFF0F4" fill-opacity="0.5"/>
</g>
</svg>
