<svg width="150" height="150" viewBox="0 0 150 150" fill="none" xmlns="http://www.w3.org/2000/svg">
<g id="ph:user-focus">
<path id="Vector" d="M131.25 28.125V44.5312C131.25 45.7745 130.756 46.9667 129.877 47.8458C128.998 48.7249 127.806 49.2188 126.562 49.2188C125.319 49.2188 124.127 48.7249 123.248 47.8458C122.369 46.9667 121.875 45.7745 121.875 44.5312V28.125H105.469C104.226 28.125 103.033 27.6311 102.154 26.7521C101.275 25.873 100.781 24.6807 100.781 23.4375C100.781 22.1943 101.275 21.002 102.154 20.1229C103.033 19.2439 104.226 18.75 105.469 18.75H121.875C124.361 18.75 126.746 19.7377 128.504 21.4959C130.262 23.254 131.25 25.6386 131.25 28.125ZM126.562 100.781C125.319 100.781 124.127 101.275 123.248 102.154C122.369 103.033 121.875 104.226 121.875 105.469V121.875H105.469C104.226 121.875 103.033 122.369 102.154 123.248C101.275 124.127 100.781 125.319 100.781 126.562C100.781 127.806 101.275 128.998 102.154 129.877C103.033 130.756 104.226 131.25 105.469 131.25H121.875C124.361 131.25 126.746 130.262 128.504 128.504C130.262 126.746 131.25 124.361 131.25 121.875V105.469C131.25 104.226 130.756 103.033 129.877 102.154C128.998 101.275 127.806 100.781 126.562 100.781ZM44.5312 121.875H28.125V105.469C28.125 104.226 27.6311 103.033 26.7521 102.154C25.873 101.275 24.6807 100.781 23.4375 100.781C22.1943 100.781 21.002 101.275 20.1229 102.154C19.2439 103.033 18.75 104.226 18.75 105.469V121.875C18.75 124.361 19.7377 126.746 21.4959 128.504C23.254 130.262 25.6386 131.25 28.125 131.25H44.5312C45.7745 131.25 46.9667 130.756 47.8458 129.877C48.7249 128.998 49.2188 127.806 49.2188 126.562C49.2188 125.319 48.7249 124.127 47.8458 123.248C46.9667 122.369 45.7745 121.875 44.5312 121.875ZM23.4375 49.2188C24.6807 49.2188 25.873 48.7249 26.7521 47.8458C27.6311 46.9667 28.125 45.7745 28.125 44.5312V28.125H44.5312C45.7745 28.125 46.9667 27.6311 47.8458 26.7521C48.7249 25.873 49.2188 24.6807 49.2188 23.4375C49.2188 22.1943 48.7249 21.002 47.8458 20.1229C46.9667 19.2439 45.7745 18.75 44.5312 18.75H28.125C25.6386 18.75 23.254 19.7377 21.4959 21.4959C19.7377 23.254 18.75 25.6386 18.75 28.125V44.5312C18.75 45.7745 19.2439 46.9667 20.1229 47.8458C21.002 48.7249 22.1943 49.2188 23.4375 49.2188ZM103.125 103.125C102.397 103.127 101.678 102.959 101.026 102.634C100.374 102.31 99.807 101.838 99.3691 101.256C96.5311 97.4718 92.8509 94.4004 88.6202 92.285C84.3894 90.1697 79.7243 89.0684 74.9941 89.0684C70.264 89.0684 65.5989 90.1697 61.3681 92.285C57.1374 94.4004 53.4572 97.4718 50.6191 101.256C49.8717 102.25 48.7597 102.907 47.5279 103.082C46.2961 103.257 45.0453 102.935 44.0508 102.188C43.0562 101.44 42.3993 100.328 42.2246 99.0963C42.0499 97.8645 42.3717 96.6137 43.1191 95.6191C47.2734 90.0568 52.8101 85.6775 59.1797 82.916C55.6893 79.7293 53.2439 75.5619 52.1645 70.9605C51.085 66.3592 51.4218 61.539 53.1308 57.1325C54.8398 52.7261 57.841 48.9392 61.7407 46.269C65.6403 43.5987 70.2562 42.1698 74.9824 42.1698C79.7087 42.1698 84.3245 43.5987 88.2242 46.269C92.1238 48.9392 95.1251 52.7261 96.8341 57.1325C98.543 61.539 98.8799 66.3592 97.8004 70.9605C96.7209 75.5619 94.2755 79.7293 90.7852 82.916C97.159 85.6758 102.7 90.0552 106.857 95.6191C107.381 96.3143 107.7 97.1414 107.78 98.0078C107.859 98.8742 107.696 99.7456 107.309 100.525C106.922 101.304 106.325 101.96 105.586 102.419C104.847 102.878 103.995 103.123 103.125 103.125ZM75 79.6875C77.7813 79.6875 80.5001 78.8628 82.8127 77.3175C85.1253 75.7723 86.9277 73.5761 87.9921 71.0065C89.0564 68.4369 89.3349 65.6094 88.7923 62.8815C88.2497 60.1537 86.9104 57.648 84.9437 55.6813C82.977 53.7146 80.4713 52.3753 77.7435 51.8327C75.0156 51.2901 72.1881 51.5686 69.6185 52.6329C67.0489 53.6973 64.8527 55.4997 63.3075 57.8123C61.7623 60.1249 60.9375 62.8437 60.9375 65.625C60.9375 69.3546 62.4191 72.9315 65.0563 75.5687C67.6935 78.2059 71.2704 79.6875 75 79.6875Z" fill="#EFF0F4"/>
</g>
</svg>
